<svg id="round-close-24px" xmlns="http://www.w3.org/2000/svg" width="20" height="20" viewBox="0 0 20 20">
  <path id="Path_13" data-name="Path 13" d="M0,0H20V20H0Z" fill="none"/>
  <path id="Path_14" data-name="Path 14" d="M15.381,5.642a.77.77,0,0,0-1.091,0L10.507,9.417,6.725,5.634A.771.771,0,1,0,5.634,6.725l3.783,3.783L5.634,14.29a.771.771,0,1,0,1.091,1.091L10.507,11.6l3.783,3.783a.771.771,0,0,0,1.091-1.091L11.6,10.507l3.783-3.783A.775.775,0,0,0,15.381,5.642Z" transform="translate(-0.508 -0.507)" fill="#666"/>
</svg>
