<svg id="round-get_app-24px" xmlns="http://www.w3.org/2000/svg" width="32" height="32" viewBox="0 0 32 32">
  <path id="Path_15" data-name="Path 15" d="M0,0H32V32H0Z" fill="none"/>
  <path id="Path_16" data-name="Path 16" d="M23.213,11.824h-2.5V4.471A1.528,1.528,0,0,0,19.143,3H12.857a1.528,1.528,0,0,0-1.571,1.471v7.353h-2.5a1.465,1.465,0,0,0-1.116,2.515l7.213,6.75a1.642,1.642,0,0,0,2.216,0l7.213-6.75A1.461,1.461,0,0,0,23.213,11.824ZM5,25.53A1.528,1.528,0,0,0,6.571,27H25.429a1.473,1.473,0,1,0,0-2.94H6.571A1.528,1.528,0,0,0,5,25.53Z" transform="translate(0 1)" fill="#212121"/>
</svg>
