<svg xmlns="http://www.w3.org/2000/svg" width="19" height="20" viewBox="0 0 19 20">
  <g id="Group_251" data-name="Group 251" transform="translate(-630 -956)">
    <path id="Path_25" data-name="Path 25" d="M0,0H19V20H0Z" transform="translate(630.001 956)" fill="none"/>
    <path id="Path_26" data-name="Path 26" d="M14.252,5.765A5.967,5.967,0,0,0,9.387,4.029a6.01,6.01,0,1,0,6.036,8.563.752.752,0,0,0-.676-1.082.73.73,0,0,0-.661.4A4.5,4.5,0,1,1,10.01,5.5a4.44,4.44,0,0,1,3.168,1.337L12.045,7.973a.751.751,0,0,0,.526,1.285h2.7a.753.753,0,0,0,.751-.751V5.81a.753.753,0,0,0-1.284-.533l-.48.488Z" transform="translate(635.532 952.53) rotate(30)" fill="#666"/>
  </g>
</svg>
